<svg width="494" height="190" viewBox="0 0 494 190" fill="none" xmlns="http://www.w3.org/2000/svg">
<g clip-path="url(#clip0_654_664)">
<path d="M311.627 187.584L232.915 185.351C232.915 185.351 238.84 149.966 219.831 140.146C206.875 133.448 195.376 102.162 198.647 80.8731C198.691 80.5898 198.736 80.3066 198.786 80.0288C200.444 70.498 205.184 63.1166 214.246 61.1116C243.541 54.6355 264.447 59.6564 264.447 59.6564C264.447 59.6564 269.287 59.7175 276.457 61.0616C276.713 61.1061 276.969 61.156 277.225 61.2116C297.525 65.1828 335.048 79.3235 336.672 129.532C338.908 198.514 311.627 187.573 311.627 187.573V187.584Z" fill="#343133"/>
<path d="M276.457 61.0673C276.323 64.6664 275.505 68.2432 274.014 71.6423C270.921 78.6905 265.28 84.0724 258.137 86.7994C236.742 94.9751 211.775 86.8661 199.147 78.074C199.097 78.3517 198.095 83.6225 198.051 83.9058C203.642 87.727 231.006 91.4093 236.197 91.4093C244.08 91.4093 251.668 90.1041 258.416 87.5215C265.753 84.7167 271.544 79.1848 274.721 71.9478C276.24 68.4931 277.074 64.8663 277.224 61.2117C276.968 61.1562 276.712 61.1062 276.457 61.0618V61.0673Z" fill="#E4842B"/>
<path d="M282.276 65.6495L269.731 34.1522C269.731 34.1522 284.79 8.38118 272.958 5.52083C261.125 2.65491 248.936 18.0453 248.936 18.0453C248.936 18.0453 226.35 10.1696 217.75 16.6124C217.75 16.6124 203.408 -3.43237 194.808 0.505478C186.202 4.44333 197.867 32.8192 197.867 32.8192C197.867 32.8192 180.11 58.8457 193.734 73.8751C207.358 88.91 258.622 101.079 282.281 65.6439L282.276 65.6495Z" fill="#343133"/>
<path d="M0.512387 187H455V186H0.512387C0.230574 186 0 186.225 0 186.5C0 186.775 0.230574 187 0.512387 187Z" fill="#B0B0B0"/>
<path d="M309.184 168.734C313.457 170.633 317.918 172.566 322.591 172.383C327.264 172.199 332.176 169.195 332.905 164.585C333.283 162.202 332.538 159.653 333.45 157.42C334.68 154.421 338.641 153.26 341.717 154.287C344.799 155.315 347.058 157.97 348.682 160.775C351.719 166.029 352.932 172.927 349.678 178.048C346.857 182.486 341.506 184.496 336.532 186.218C329.901 188.512 322.502 190.783 316.077 187.967C309.618 185.135 306.097 176.954 308.489 170.328" fill="#343133"/>
<path d="M238.68 55.9317C238.68 55.9317 231.069 52.5859 225.927 56.266L231.41 65.324L238.686 55.9374L238.68 55.9317Z" fill="#E4842B"/>
<path d="M197.984 91.9482L212.265 167.862C212.265 167.862 190.652 189.828 218.44 189.439C246.227 189.056 238.122 174.799 238.122 174.799L229.243 108.905" fill="#343133"/>
<path d="M217.739 190C210.213 190 205.662 188.278 204.205 184.874C201.551 178.675 210.19 169.228 211.67 167.673L202.068 110.921L203.164 110.738L212.861 168.045L212.66 168.245C212.56 168.345 202.68 178.492 205.228 184.435C206.535 187.49 210.969 188.984 218.435 188.878C228.81 188.734 235.497 186.562 237.778 182.602C239.83 179.036 237.661 175.104 237.639 175.065L237.589 174.971L237.572 174.865L231.397 129.011L232.498 128.861L238.662 174.615C239.029 175.309 240.949 179.314 238.751 183.146C236.231 187.534 229.4 189.839 218.452 189.989C218.212 189.989 217.979 189.989 217.745 189.989L217.739 190Z" fill="#514D50"/>
<path d="M234.26 91.9482L248.54 167.862C248.54 167.862 226.928 189.828 254.715 189.439C282.503 189.056 274.397 174.799 274.397 174.799L265.519 108.905" fill="#343133"/>
<path d="M254.015 190C246.488 190 241.938 188.278 240.48 184.873C237.827 178.686 246.449 169.25 247.94 167.678L242.205 137.131L243.301 136.925L249.142 168.039L248.936 168.245C248.836 168.345 238.956 178.492 241.504 184.435C242.811 187.489 247.251 188.989 254.711 188.878C265.091 188.734 271.784 186.562 274.059 182.591C276.112 179.014 273.937 175.104 273.914 175.065L273.859 174.971L264.969 108.971L266.07 108.821L274.932 174.615C275.299 175.309 277.219 179.314 275.021 183.146C272.501 187.534 265.67 189.839 254.722 189.989C254.483 189.989 254.249 189.989 254.015 189.989V190Z" fill="#514D50"/>
</g>
<defs>
<clipPath id="clip0_654_664">
<rect width="494" height="190" fill="white"/>
</clipPath>
</defs>
</svg>
