<svg width="1280" height="478" viewBox="0 0 1280 478" fill="none" xmlns="http://www.w3.org/2000/svg">
<rect width="1280" height="478" rx="85" fill="#714C28"/>
<rect x="52" y="53" width="1177" height="371" rx="50" fill="#B28449"/>
<rect x="186" y="305" width="189" height="11.3044" fill="#B7986A"/>
<rect x="186" y="302.696" width="189" height="11.3044" fill="#D3A66C"/>
<rect x="186" y="80" width="12.5721" height="222.696" fill="#D3A66C"/>
<rect x="362.428" y="80" width="12.5721" height="222.696" fill="#D3A66C"/>
<rect x="426" y="302.696" width="189" height="11.3044" fill="#D3A66C"/>
<rect x="426" y="80" width="12.5721" height="222.696" fill="#D3A66C"/>
<rect x="602.428" y="80" width="12.5721" height="222.696" fill="#D3A66C"/>
<rect x="666" y="302.696" width="189" height="11.3044" fill="#D3A66C"/>
<rect x="666" y="80" width="12.5721" height="222.696" fill="#D3A66C"/>
<rect x="842.428" y="80" width="12.5721" height="222.696" fill="#D3A66C"/>
<rect x="906" y="302.696" width="189" height="11.3044" fill="#D3A66C"/>
<rect x="906" y="80" width="12.5721" height="222.696" fill="#D3A66C"/>
<rect x="1082.43" y="80" width="12.5721" height="222.696" fill="#D3A66C"/>
</svg>
