<svg width="686" height="85" viewBox="0 0 686 85" fill="none" xmlns="http://www.w3.org/2000/svg">
<path d="M2.72762 81.2049C6.99498 81.2049 679.5 85.5509 682.5 83.0509C682.867 83.1557 683.668 81.0657 683.668 80.5824C683.668 79.366 683.889 78.2258 683.889 77.0473C683.889 75.548 684.333 72.7413 683.226 71.6343C681.982 70.3905 682.336 68.8611 680.354 68.7621C679.025 68.6956 677.824 68.7621 676.5 68.7621C673.035 68.7621 669.74 67.8783 666.165 67.8783L665.892 67.8782C664.386 67.8776 662.903 67.877 661.402 68.0501C660.772 68.1229 657.785 68.8557 657.315 68.1974C656.752 67.4096 667.667 63.2669 668.607 62.8212C669.604 62.349 673.726 61.3013 673.726 60.0349C673.726 59.0269 675.132 57.5196 674.831 57.2609C674.347 56.8468 672.937 55.132 673.075 54.5114C673.237 53.7835 674.758 52.87 675.383 52.5229C677.058 51.592 678.277 50.0169 680.035 49.1965C681.353 48.5815 682.749 46.5991 684.012 46.2384C684.466 46.1085 683.424 42.3183 683.619 41.4636C683.968 39.9357 683.872 37.7122 683.717 36.2101C683.339 32.5335 684.481 29.4948 683.177 25.7277C682.641 24.1791 682.784 21.4162 682.784 19.8237C682.784 19.0308 683.451 17.846 682.465 17.2829C681.351 16.6461 680.411 16.6201 679.041 16.6201C675.601 16.6201 672.179 17.2829 668.693 17.2829C667.608 17.2829 666.619 17.1247 665.551 17.0619C664.386 16.9934 664.095 16.3991 665.551 16.3991C667.425 16.3991 669.128 15.6041 670.952 15.3435C674.386 14.8528 677.451 13.9704 680.796 13.1341C685.075 12.0645 682.268 4.16639 682.268 1.45822C675.268 1.45822 33.7674 1 29.5 1C28.7602 1.18495 23.7169 1 22.9374 1H9.88092C8.05518 1 6.08568 1.26154 4.2672 1.4636C2.8723 1.61859 3.62777 2.25212 3.32315 3.24212C2.73331 5.15901 3.05342 6.97717 3.05342 8.97384C3.05342 9.95406 3.02443 10.909 3.19671 11.8566C3.30129 12.4318 3.26879 12.2274 3.84574 12.2274H6.05414C7.26766 12.2274 8.43786 12.3792 9.65333 12.3792C10.2541 12.3792 10.7348 12.9861 11.2464 12.9861H17.349C19.96 12.9861 22.5351 13.5929 25.1796 13.5929C26.0492 13.5929 28.6471 13.8525 27.7841 13.7447C30.4749 13.7447 33.5059 15.6825 36.1434 15.6825C38.7784 15.6825 30.8728 16.076 28.2936 16.6158C26.1364 17.0674 23.668 16.5232 21.6271 17.3825C20.2313 17.9702 18.4765 17.7491 16.9772 17.7491C14.5176 17.7491 12.1498 19.5491 9.61077 19.5491C5.91061 19.5491 2.60138 18.9978 2.42762 23.5157C2.27572 27.4647 1.22767 31.4166 1.22767 35.4487C1.22767 37.193 0.626651 40.5296 1.37765 42.1818C2.10985 43.7928 2.79379 44.8219 4.07758 46.2484C4.3135 46.5105 6.10715 47.6613 5.86087 47.7317C4.99193 47.98 4.4887 48.1842 3.86093 48.8817C2.97117 49.8702 1.66097 50.7111 1.66097 52.2482C1.66097 55.0595 1.82765 61.1596 1.82765 64.2479C1.82765 65.3597 2.68494 67.5984 1.82764 68.5509C0.534444 69.9877 1.82764 74.5509 1.89431 76.5509C1.89431 77.8831 1.90538 80.1771 2.72762 81.2049Z" fill="#B28449" stroke="#B28449" stroke-linecap="round"/>
<circle cx="658.315" cy="43.3655" r="7.31455" fill="#B39B7C"/>
<circle cx="658.08" cy="42.3655" r="7.31455" fill="#D0BA9D"/>
<circle cx="29.5493" cy="43.3655" r="7.31455" fill="#B39B7C"/>
<circle cx="29.3146" cy="42.3655" r="7.31455" fill="#D0BA9D"/>
<path d="M669.038 15.4135C667.728 15.5772 662.327 16.3984 661 16.5509" stroke="#946031" stroke-linecap="round"/>
<path d="M682.5 10.5509C682.5 10.0509 682.405 11.4335 682.156 11.7692C681.823 12.2176 681.104 12.4841 680.63 12.7478C679.986 13.1054 679.288 13.2415 678.608 13.5005C678.042 13.7159 677.437 13.8168 676.858 13.9911C675.878 14.2863 674.91 14.6298 673.923 14.8995C671.915 15.4479 669.5 15.5509 667 16.0509" stroke="#946031" stroke-width="2" stroke-linecap="round"/>
<path d="M667.542 16.4881C667.244 16.6716 666.519 16.5348 666.162 16.5348C665.672 16.5348 665.182 16.5348 664.692 16.5348C663.881 16.5348 663.069 16.5348 662.258 16.5348C661.166 16.5348 661.092 16.5348 660 16.5348C659.147 16.5348 659.353 16.5348 658.5 16.5348" stroke="#946031" stroke-linecap="round"/>
<path d="M684 45.0633C683.818 44.9015 684.133 45.941 684 46.0509C683.299 46.6313 681.93 47.571 681.168 48.0711C679.833 48.9468 678.737 50.0702 677.486 51.0335C676.568 51.7406 675.62 52.3932 674.73 53.1342C674.338 53.4608 673.623 53.5603 673.5 54.0509M674.5 57.5509C674.222 57.891 673.519 59.608 673.249 59.9382C672.96 60.2916 672.799 60.6208 672.377 60.8319C671.674 61.183 670.942 61.5231 670.254 61.9036C668.849 62.6809 667.152 62.919 665.718 63.6839C664.794 64.1766 663.856 64.6184 662.906 65.0582C662.123 65.4206 658.245 66.614 657.5 67.0509" stroke="#946031" stroke-width="2" stroke-linecap="round"/>
<path d="M3.5 12.0509C4.06494 12.0171 6.42936 12.3345 6.9931 12.3398C7.70228 12.3465 8.36445 12.4955 9.05488 12.6195C9.32983 12.6688 9.61985 12.7703 9.89833 12.7935C10.7994 12.8686 11.703 12.9351 12.6042 13.0152C13.8918 13.1296 15.2024 13.1309 16.4957 13.1684C19.5729 13.2576 22.6392 13.6315 25.7127 13.8065C26.2682 13.8382 26.8503 13.8576 27.3981 13.9613C27.7147 14.0211 28.041 14.0847 28.3621 14.1085C28.6076 14.1267 28.915 14.1124 29.152 14.1665C29.3183 14.2045 29.5103 14.3345 29.6607 14.2141" stroke="#946031" stroke-width="1.5" stroke-linecap="round"/>
<path d="M29.1252 14.1204C29.133 14.2523 29.3492 14.2562 29.4465 14.2811C29.9513 14.41 30.4388 14.5895 30.949 14.6991C31.6716 14.8542 32.7721 15.422 33.5 15.5509" stroke="#946031" stroke-width="1.5" stroke-linecap="round"/>
<path d="M37.5081 15.2997H130.201" stroke="#A4773E" stroke-width="1.2" stroke-linecap="round"/>
<path d="M630.58 67.5274H655.698" stroke="#A4773E" stroke-width="1.2" stroke-linecap="round"/>
<path d="M348.01 76.3185H385.058" stroke="#A4773E" stroke-width="1.2" stroke-linecap="round"/>
<path d="M411.711 42.7586H519.087" stroke="#A4773E" stroke-width="1.2" stroke-linecap="round"/>
<path d="M231.214 4.73398H300.915" stroke="#A4773E" stroke-width="1.2" stroke-linecap="round"/>
<path d="M518.808 68.7833H602.951" stroke="#A4773E" stroke-width="1.2" stroke-linecap="round"/>
<path d="M208.039 70.5074H344.729" stroke="#A4773E" stroke-width="1.2" stroke-linecap="round"/>
<path d="M69.3672 26.925C82.0286 24.8531 95.1719 24.6267 107.96 23.9901C130.006 22.8928 152.136 21.2364 174.214 21.2754C195.327 21.3127 216.725 23.6357 237.46 27.5853C243.19 28.6767 260.693 30.5173 263.727 36.9768C268.988 48.1765 215.802 55.8926 211.487 56.4935C174.967 61.5796 138.408 55.3196 101.724 55.3196" stroke="#A4773E" stroke-width="1.2" stroke-linecap="round"/>
<path d="M233.131 13.0578C252.416 14.8658 271.679 16.1544 290.801 19.4411C302.154 21.3925 313.576 23.8019 324.478 27.5853C329.819 29.4385 340.306 32.8722 342.014 39.3247C345.607 52.899 307.154 55.0926 300.743 55.2462C275.351 55.8544 251.362 56.771 226.528 62.5833" stroke="#A4773E" stroke-width="1.2" stroke-linecap="round"/>
<path d="M79.9219 38.3339C90.8866 37.877 101.837 35.2944 112.802 34.4214C138.173 32.4014 164.372 31.6363 189.811 32.3147C198.134 32.5366 217.046 37.2934 198.614 41.6821C177.64 46.6759 155.536 47.6475 134.095 47.137" stroke="#A4773E" stroke-width="1.2" stroke-linecap="round"/>
<path d="M651 18.8436C647.778 21.7074 634.243 18.8436 630.378 18.8436C620.605 18.8436 612.008 14.8973 602.445 14.2804C590.149 13.487 577.804 15.0054 565.513 15.0054C539.213 15.0054 513.232 17.2041 487 18.8436" stroke="#A4773E" stroke-width="1.2" stroke-linecap="round"/>
<path d="M4.60382 68.5474C29.7333 68.5474 53.9561 70.0718 78.7122 64.8046" stroke="#A4773E" stroke-width="1.2" stroke-linecap="round"/>
</svg>
