<svg width="686" height="85" viewBox="0 0 686 85" fill="none" xmlns="http://www.w3.org/2000/svg">
<path d="M2.72762 81.2049C6.99498 81.2049 679.5 85.5509 682.5 83.0509C682.867 83.1557 683.668 81.0657 683.668 80.5824C683.668 79.366 683.889 78.2258 683.889 77.0473C683.889 75.548 684.333 72.7413 683.226 71.6343C681.982 70.3905 682.336 68.8611 680.354 68.7621C679.025 68.6956 677.824 68.7621 676.5 68.7621C673.035 68.7621 669.74 67.8783 666.165 67.8783L665.892 67.8782C664.386 67.8776 662.903 67.877 661.402 68.0501C660.772 68.1229 657.785 68.8557 657.315 68.1974C656.752 67.4096 667.667 63.2669 668.607 62.8212C669.604 62.349 673.726 61.3013 673.726 60.0349C673.726 59.0269 675.132 57.5196 674.831 57.2609C674.347 56.8468 672.937 55.132 673.075 54.5114C673.237 53.7835 674.758 52.87 675.383 52.5229C677.058 51.592 678.277 50.0169 680.035 49.1965C681.353 48.5815 682.749 46.5991 684.012 46.2384C684.466 46.1085 683.424 42.3183 683.619 41.4636C683.968 39.9357 683.872 37.7122 683.717 36.2101C683.339 32.5335 684.481 29.4948 683.177 25.7277C682.641 24.1791 682.784 21.4162 682.784 19.8237C682.784 19.0308 683.451 17.846 682.465 17.2829C681.351 16.6461 680.411 16.6201 679.041 16.6201C675.601 16.6201 672.179 17.2829 668.693 17.2829C667.608 17.2829 666.619 17.1247 665.551 17.0619C664.386 16.9934 664.095 16.3991 665.551 16.3991C667.425 16.3991 669.128 15.6041 670.952 15.3435C674.386 14.8528 677.451 13.9704 680.796 13.1341C685.075 12.0645 682.268 4.16639 682.268 1.45822C675.268 1.45822 33.7674 1 29.5 1C28.7602 1.18495 23.7169 1 22.9374 1H9.88092C8.05518 1 6.08568 1.26154 4.2672 1.4636C2.8723 1.61859 3.62777 2.25212 3.32315 3.24212C2.73331 5.15901 3.05342 6.97717 3.05342 8.97384C3.05342 9.95406 3.02443 10.909 3.19671 11.8566C3.30129 12.4318 3.26879 12.2274 3.84574 12.2274H6.05414C7.26766 12.2274 8.43786 12.3792 9.65333 12.3792C10.2541 12.3792 10.7348 12.9861 11.2464 12.9861H17.349C19.96 12.9861 22.5351 13.5929 25.1796 13.5929C26.0492 13.5929 28.6471 13.8525 27.7841 13.7447C30.4749 13.7447 33.5059 15.6825 36.1434 15.6825C38.7784 15.6825 30.8728 16.076 28.2936 16.6158C26.1364 17.0674 23.668 16.5232 21.6271 17.3825C20.2313 17.9702 18.4765 17.7491 16.9772 17.7491C14.5176 17.7491 12.1498 19.5491 9.61077 19.5491C5.91061 19.5491 2.60138 18.9978 2.42762 23.5157C2.27572 27.4647 1.22767 31.4166 1.22767 35.4487C1.22767 37.193 0.626651 40.5296 1.37765 42.1818C2.10985 43.7928 2.79379 44.8219 4.07758 46.2484C4.3135 46.5105 6.10715 47.6613 5.86087 47.7317C4.99193 47.98 4.4887 48.1842 3.86093 48.8817C2.97117 49.8702 1.66097 50.7111 1.66097 52.2482C1.66097 55.0595 1.82765 61.1596 1.82765 64.2479C1.82765 65.3597 2.68494 67.5984 1.82764 68.5509C0.534444 69.9877 1.82764 74.5509 1.89431 76.5509C1.89431 77.8831 1.90538 80.1771 2.72762 81.2049Z" fill="#B28449" stroke="#B28449" stroke-linecap="round"/>
<circle cx="658.315" cy="43.3655" r="7.31455" fill="#B39B7C"/>
<circle cx="658.08" cy="42.3655" r="7.31455" fill="#D0BA9D"/>
<circle cx="29.5493" cy="43.3655" r="7.31455" fill="#B39B7C"/>
<circle cx="29.3146" cy="42.3655" r="7.31455" fill="#D0BA9D"/>
<path d="M669.038 15.4135C667.728 15.5772 662.327 16.3984 661 16.5509" stroke="#946031" stroke-linecap="round"/>
<path d="M682.5 10.5509C682.5 10.0509 682.405 11.4335 682.156 11.7692C681.823 12.2176 681.104 12.4841 680.63 12.7478C679.986 13.1054 679.288 13.2415 678.608 13.5005C678.042 13.7159 677.437 13.8168 676.858 13.9911C675.878 14.2863 674.91 14.6298 673.923 14.8995C671.915 15.4479 669.5 15.5509 667 16.0509" stroke="#946031" stroke-width="2" stroke-linecap="round"/>
<path d="M667.542 16.4881C667.244 16.6716 666.519 16.5348 666.162 16.5348C665.672 16.5348 665.182 16.5348 664.692 16.5348C663.881 16.5348 663.069 16.5348 662.258 16.5348C661.166 16.5348 661.092 16.5348 660 16.5348C659.147 16.5348 659.353 16.5348 658.5 16.5348" stroke="#946031" stroke-linecap="round"/>
<path d="M684 45.0633C683.818 44.9015 684.133 45.941 684 46.0509C683.299 46.6313 681.93 47.571 681.168 48.0711C679.833 48.9468 678.737 50.0702 677.486 51.0335C676.568 51.7406 675.62 52.3932 674.73 53.1342C674.338 53.4608 673.623 53.5603 673.5 54.0509M674.5 57.5509C674.222 57.891 673.519 59.608 673.249 59.9382C672.96 60.2916 672.799 60.6208 672.377 60.8319C671.674 61.183 670.942 61.5231 670.254 61.9036C668.849 62.6809 667.152 62.919 665.718 63.6839C664.794 64.1766 663.856 64.6184 662.906 65.0582C662.123 65.4206 658.245 66.614 657.5 67.0509" stroke="#946031" stroke-width="2" stroke-linecap="round"/>
<path d="M3.5 12.0509C4.06494 12.0171 6.42936 12.3345 6.9931 12.3398C7.70228 12.3465 8.36445 12.4955 9.05488 12.6195C9.32983 12.6688 9.61985 12.7703 9.89833 12.7935C10.7994 12.8686 11.703 12.9351 12.6042 13.0152C13.8918 13.1296 15.2024 13.1309 16.4957 13.1684C19.5729 13.2576 22.6392 13.6315 25.7127 13.8065C26.2682 13.8382 26.8503 13.8576 27.3981 13.9613C27.7147 14.0211 28.041 14.0847 28.3621 14.1085C28.6076 14.1267 28.915 14.1124 29.152 14.1665C29.3183 14.2045 29.5103 14.3345 29.6607 14.2141" stroke="#946031" stroke-width="1.5" stroke-linecap="round"/>
<path d="M29.1252 14.1204C29.133 14.2523 29.3492 14.2562 29.4465 14.2811C29.9513 14.41 30.4388 14.5895 30.949 14.6991C31.6716 14.8542 32.7721 15.422 33.5 15.5509" stroke="#946031" stroke-width="1.5" stroke-linecap="round"/>
<path d="M37.5081 15.2997H130.201" stroke="#A4773E" stroke-width="1.2" stroke-linecap="round"/>
<path d="M630.58 67.5274H655.698" stroke="#A4773E" stroke-width="1.2" stroke-linecap="round"/>
<path d="M348.01 76.3185H385.058" stroke="#A4773E" stroke-width="1.2" stroke-linecap="round"/>
<path d="M411.711 42.7586H519.087" stroke="#A4773E" stroke-width="1.2" stroke-linecap="round"/>
<path d="M231.214 4.73398H300.915" stroke="#A4773E" stroke-width="1.2" stroke-linecap="round"/>
<path d="M518.808 68.7833H602.951" stroke="#A4773E" stroke-width="1.2" stroke-linecap="round"/>
<path d="M208.039 70.5074H344.729" stroke="#A4773E" stroke-width="1.2" stroke-linecap="round"/>
<path d="M69.3672 26.925C82.0286 24.8531 95.1719 24.6267 107.96 23.9901C130.006 22.8928 152.136 21.2364 174.214 21.2754C195.327 21.3127 216.725 23.6357 237.46 27.5853C243.19 28.6767 260.693 30.5173 263.727 36.9768C268.988 48.1765 215.802 55.8926 211.487 56.4935C174.967 61.5796 138.408 55.3196 101.724 55.3196" stroke="#A4773E" stroke-width="1.2" stroke-linecap="round"/>
<path d="M233.131 13.0578C252.416 14.8658 271.679 16.1544 290.801 19.4411C302.154 21.3925 313.576 23.8019 324.478 27.5853C329.819 29.4385 340.306 32.8722 342.014 39.3247C345.607 52.899 307.154 55.0926 300.743 55.2462C275.351 55.8544 251.362 56.771 226.528 62.5833" stroke="#A4773E" stroke-width="1.2" stroke-linecap="round"/>
<path d="M79.9219 38.3339C90.8866 37.877 101.837 35.2944 112.802 34.4214C138.173 32.4014 164.372 31.6363 189.811 32.3147C198.134 32.5366 217.046 37.2934 198.614 41.6821C177.64 46.6759 155.536 47.6475 134.095 47.137" stroke="#A4773E" stroke-width="1.2" stroke-linecap="round"/>
<path d="M651 18.8436C647.778 21.7074 634.243 18.8436 630.378 18.8436C620.605 18.8436 612.008 14.8973 602.445 14.2804C590.149 13.487 577.804 15.0054 565.513 15.0054C539.213 15.0054 513.232 17.2041 487 18.8436" stroke="#A4773E" stroke-width="1.2" stroke-linecap="round"/>
<path d="M4.60382 68.5474C29.7333 68.5474 53.9561 70.0718 78.7122 64.8046" stroke="#A4773E" stroke-width="1.2" stroke-linecap="round"/>
<path d="M255.505 54.84C255.745 55.38 255.205 56.52 254.605 57.24C253.945 58.08 251.845 58.8 250.285 58.56C248.845 58.32 245.125 58.02 243.565 57.96C240.805 57.84 222.085 58.32 218.425 58.44C214.705 58.56 210.625 58.32 207.625 56.1C206.365 55.14 205.225 54.18 204.625 53.52C204.025 52.92 203.965 52.02 204.325 51.24C204.745 50.4 206.425 48.36 207.385 47.76C208.165 47.28 208.885 47.22 210.445 48C211.945 48.72 213.085 49.38 214.345 49.68C215.605 49.92 216.385 49.98 217.525 50.1C219.265 50.16 222.445 50.16 226.045 50.1V49.74C226.045 48.3 225.805 46.98 225.205 45.72C224.965 45.18 225.085 44.58 225.625 44.04C219.325 43.02 213.985 38.64 213.985 32.34C213.985 26.58 221.545 21.36 227.365 20.28C228.145 19.68 229.045 19.5 230.245 19.5C237.985 19.5 246.325 25.68 245.785 33.48C245.425 39 240.565 43.56 234.745 43.98C234.925 45.12 235.045 46.92 235.045 47.88C235.045 48.48 234.985 49.2 234.925 49.92C238.525 49.8 241.585 49.62 243.085 49.5C245.665 49.26 247.585 48.96 248.845 49.14C250.105 49.32 251.485 49.98 252.805 51.42C254.005 52.68 255.205 54.12 255.505 54.84ZM222.745 31.98C222.745 34.56 226.225 36.78 229.405 36.96C230.425 37.02 231.145 37.14 232.105 37.38C234.625 37.08 237.025 34.32 236.965 32.4C236.845 29.22 234.265 27.42 230.785 26.82C226.405 27.06 222.745 28.62 222.745 31.98ZM267.075 19.56C266.715 19.02 265.875 18.6 265.515 18.12C265.215 17.7 265.095 17.1 265.575 16.32C266.055 15.54 268.215 14.22 269.415 13.62C270.015 13.32 270.795 13.26 271.695 13.74C272.595 14.22 274.755 15.54 275.535 17.22C276.135 18.48 276.315 20.4 276.435 24.9C280.815 24.9 287.535 24.84 289.035 24.78C291.675 24.72 292.515 24.42 293.895 24.42C294.975 24.42 295.935 25.08 296.895 25.98C298.275 27.24 298.335 28.2 296.955 29.52C295.575 30.84 294.255 31.62 291.975 31.5C290.775 31.44 289.095 31.38 287.595 31.44C285.495 31.5 275.955 31.68 273.915 31.8C271.875 31.92 270.495 31.74 269.775 31.44C269.055 31.14 267.795 29.52 267.555 28.26C267.375 27.06 267.615 26.46 268.335 25.92C268.215 24.42 268.095 22.86 267.915 21.84C267.795 21.06 267.435 20.1 267.075 19.56ZM306.135 37.62C306.615 38.1 306.555 39 306.255 39.36C305.775 39.9 304.035 40.98 303.375 41.22C302.895 41.4 301.635 41.88 299.775 41.64C297.915 41.4 293.295 41.1 291.735 41.04C286.695 40.86 281.115 40.92 275.775 40.92C274.095 40.92 268.095 41.28 266.595 41.4C265.215 41.52 262.215 41.34 260.415 40.56C258.795 39.84 257.055 38.7 257.055 38.16C257.055 37.98 256.935 37.5 257.235 37.02C257.715 36.3 258.435 34.74 258.975 34.02C259.335 33.54 260.355 33.48 260.895 33.72C261.675 34.08 262.755 34.32 263.775 34.32C267.375 34.32 276.015 34.38 280.035 34.26C282.015 34.2 289.995 34.26 292.215 34.14C293.535 34.08 296.595 33.84 297.375 33.9C298.755 34.02 300.555 34.32 301.815 34.8C303.675 35.52 304.935 36.42 306.135 37.62ZM297.735 58.5C298.455 58.92 299.595 59.76 300.255 60.42C300.735 60.9 301.275 61.44 301.275 61.74C301.275 61.92 300.435 63.24 298.395 64.32C295.875 65.64 293.175 65.76 289.695 66.06C286.755 66.3 283.335 66.3 280.815 66.12C277.095 65.88 274.575 65.16 272.475 63.6C269.895 61.68 265.935 57.3 264.375 54.54C263.895 53.7 263.835 52.5 264.195 51.96C264.675 51.24 267.075 50.76 268.515 50.76C268.815 50.76 269.715 50.94 270.435 51.72C273.915 51.36 277.575 51.18 281.055 51.3L288.255 51.66C288.255 51 288.435 50.16 288.675 49.38H288.495C286.155 49.2 275.535 49.2 273.315 49.2C272.415 49.2 271.275 49.14 270.375 48.78C269.175 48.3 267.795 47.46 267.255 47.1C266.415 46.5 265.995 45.9 266.535 44.82C266.895 44.1 267.135 43.5 268.095 42.78C268.635 42.36 269.655 42.6 270.135 42.84C271.455 43.5 272.175 43.8 273.975 43.74C276.675 43.68 284.415 43.62 290.535 43.62C291.315 43.62 293.355 43.2 294.915 43.38C296.355 43.56 296.835 43.74 297.495 44.4C298.335 45.24 298.515 45.78 298.335 46.5C298.215 47.04 297.855 47.58 297.375 47.94C297.255 48.96 296.355 52.38 295.635 54.06V54.3C295.515 54.78 295.275 55.32 294.915 55.74C294.495 56.28 293.775 56.76 292.695 56.7C291.135 56.64 284.535 56.4 281.475 56.34C279.915 56.34 277.515 56.34 275.235 56.46L275.595 56.82C276.375 57.6 277.095 58.56 278.355 58.74C279.975 58.98 286.875 59.16 288.915 59.1C291.075 59.04 294.135 58.5 294.915 58.2C295.755 57.9 296.775 57.96 297.735 58.5ZM351.232 52.02C351.412 57.84 350.092 62.22 345.652 66.6C345.112 64.5 343.432 62.04 342.712 60.12C341.872 57.9 341.692 55.68 341.752 53.46C341.752 52.68 341.812 51.78 341.812 50.88C338.932 52.02 335.152 53.04 332.272 53.52C328.732 54.12 319.072 54.84 314.452 54.84C313.552 54.84 312.232 54.66 311.392 54.42C310.012 54 308.872 53.34 308.152 52.32C307.852 51.9 307.732 51.12 307.732 50.64C307.732 49.02 308.212 47.4 309.292 46.86C310.012 46.5 310.432 46.62 311.152 46.8C311.992 46.98 312.892 47.04 313.672 47.04C316.672 47.04 326.632 46.5 330.172 46.2C334.432 45.84 337.912 45.42 341.992 44.7C342.172 37.08 342.292 28.14 342.232 22.86C342.172 19.74 341.272 18.48 340.192 17.22C338.752 15.54 339.412 14.82 341.452 13.14C343.552 11.46 344.212 11.16 346.252 12.66C350.032 15.48 350.872 17.1 350.872 21.54C350.872 30 351.052 46.5 351.232 52.02ZM325.972 42.6C318.832 42.84 312.832 38.46 312.652 32.28C312.532 28.26 316.432 22.98 320.512 22.08C321.052 21.96 321.532 21.84 321.892 21.54C322.012 21.54 322.072 21.3 322.312 21.12C323.392 20.34 324.292 20.22 325.312 20.4C330.892 21.36 337.192 26.34 337.372 31.86C337.552 38.28 331.852 42.42 325.972 42.6ZM324.112 26.94C321.952 27.42 320.032 30.06 320.332 32.4C320.932 33.84 322.612 35.28 324.952 35.28C327.532 35.28 329.752 33.66 329.752 31.56C329.752 29.4 327.412 26.58 325.132 27.36C324.772 27.48 324.472 27.36 324.112 26.94ZM423.409 51.9C425.029 53.28 425.869 54.66 425.749 55.38C425.569 56.46 423.469 57.42 422.329 57.84C420.829 58.38 418.489 58.74 416.329 58.62C407.449 58.08 392.929 58.14 382.669 58.62C379.069 58.8 377.869 58.5 376.069 57.54C374.689 56.82 373.069 55.38 373.069 54.3C373.069 52.62 375.649 50.22 378.169 50.28C381.169 50.34 387.529 50.34 394.249 50.28L394.429 47.94C394.549 45.24 394.429 44.52 394.189 43.62V43.56H391.249C389.869 43.56 387.829 43.68 386.929 43.8C385.129 44.04 383.989 42.78 383.209 41.34C382.489 39.96 382.609 38.82 383.029 37.68C383.209 37.2 383.749 36.78 384.349 36.48C384.469 33.54 384.529 29.94 384.349 27C383.929 26.58 383.569 26.16 383.329 25.74C382.789 24.78 382.969 24.12 383.509 23.34C383.869 22.8 385.009 21.42 385.489 21C386.149 20.46 386.929 20.52 387.769 20.88C389.089 21.42 389.509 21.72 391.369 21.78C392.809 21.84 399.409 21.54 402.949 21.36C405.169 21.24 406.789 20.76 408.109 20.82C409.309 20.88 410.389 21.54 411.229 22.38C411.949 23.1 413.149 24.48 413.809 25.38C413.989 25.62 413.989 26.52 413.749 26.7C412.309 27.78 409.489 28.98 407.749 28.98C404.809 28.92 397.489 28.98 393.229 28.98C393.109 30.84 393.109 33.54 393.169 36C398.629 35.94 405.169 35.88 408.889 35.7C411.109 35.58 412.789 35.4 414.109 35.1C414.829 34.92 415.909 35.7 415.669 36.72C415.429 37.68 414.589 39.3 414.109 39.96C411.829 43.08 409.789 43.92 405.589 43.8C404.989 43.8 404.329 43.74 403.549 43.74C403.669 44.34 403.669 45 403.669 45.72C403.609 47.64 403.549 48.9 403.429 50.1C409.189 49.98 414.229 49.8 416.449 49.5C419.449 49.14 421.129 49.98 423.409 51.9ZM471.433 50.82C471.493 53.4 470.893 56.52 469.933 58.8C468.793 61.5 466.633 64.68 466.453 66.6C463.993 63.36 461.953 58.74 462.073 54.6C462.133 51.24 462.253 46.56 462.313 41.64C460.633 41.76 459.073 41.88 458.353 41.76C457.033 41.52 455.113 40.2 454.153 39.48C453.073 38.64 452.233 37.8 452.233 36.18C452.233 35.76 452.353 34.56 453.193 34.14C454.213 33.6 458.353 33 459.733 33C460.333 33 461.353 33.06 462.433 33.12C462.493 29.1 462.493 25.44 462.433 22.86C462.373 19.74 461.473 18.48 460.393 17.22C458.953 15.54 459.613 14.82 461.653 13.14C463.753 11.46 464.413 11.16 466.453 12.66C470.233 15.48 471.073 17.1 471.073 21.54C471.073 30 471.313 45.3 471.433 50.82ZM455.293 44.34C457.393 45.9 458.293 47.22 458.293 49.5C458.293 51 457.753 52.92 456.973 53.34C456.193 53.76 454.033 53.76 452.953 53.46C451.153 52.98 450.193 52.08 448.633 50.52C447.553 49.44 445.573 47.52 444.073 45.84C442.873 47.94 441.733 49.68 440.833 50.7C438.493 53.34 436.573 53.58 433.153 53.46C431.413 53.4 428.893 52.62 426.793 51.78C425.893 51.42 425.233 51 426.313 50.82C427.393 50.64 428.713 50.16 429.493 49.56C434.053 46.08 439.393 37.44 441.253 31.02C441.793 29.1 441.973 28.44 441.133 27.36C440.173 26.16 440.113 26.16 440.413 25.44C440.713 24.72 442.033 23.16 442.873 22.8C443.773 22.38 443.953 22.14 445.273 22.8C446.593 23.46 448.093 24.36 449.413 25.68C451.213 27.48 451.153 28.98 450.313 31.98C449.713 34.02 448.693 36.54 447.493 39.12C449.413 40.38 454.153 43.5 455.293 44.34Z" fill="white"/>
</svg>
