<svg width="502" height="165" viewBox="0 0 502 165" fill="none" xmlns="http://www.w3.org/2000/svg">
<path d="M78.8073 55.1031L74.7418 127.117C67.1321 109.897 57.2291 93.3033 11.2582 90.7986L7.19275 12.8403C30.96 9.08324 72.3026 18.7852 78.8073 55.1031Z" fill="#37AD74"/>
<path d="M74.7418 127.117C70.4679 104.679 55.2276 69.6968 27.2073 67.9435L33.7745 0.00374055C47.6388 -0.309345 72.5527 19.0394 78.8073 55.1069L74.7418 127.117Z" fill="#1B7349"/>
<path d="M75.2802 137.086L86.308 65.9874C100.183 31.8122 142.531 30.7175 165.012 39.327L144.913 114.74C99.4096 107.646 86.2875 121.822 75.2802 137.086Z" fill="#37AD74"/>
<path d="M134.038 89.0743C106.253 84.9718 84.1035 116.028 75.2806 137.089L86.1938 65.804C99.7737 31.8206 128.157 18.0659 141.661 21.2507L134.038 89.0743Z" fill="#1B7349"/>
<path d="M197.664 50.2422V82.2344H193.41V66.168H190.316V80.6875H186.203V50.7695H190.316V62.582H193.41V50.2422H197.664ZM170.91 74.9922V53.9336H182.828V57.5547H175.41V71.2305C178.504 71.1777 181.246 71.002 184.34 70.457L184.656 74.1133C180.754 74.8516 177.344 74.9746 173.125 74.9922H170.91ZM228.074 50.2773V73.6211H223.609V62.1602H218.371V58.5391H223.609V50.2773H228.074ZM200.934 66.4141C206.225 64.7617 208.615 60.5957 208.633 56.5V56.0078H202.199V52.4219H219.566V56.0078H213.203V56.5352C213.186 60.2441 215.471 64.1992 220.551 65.8516L218.336 69.4023C214.803 68.2422 212.359 65.9219 210.971 63.0566C209.547 66.2383 206.998 68.8223 203.219 70.0703L200.934 66.4141ZM206.84 81.6719V71.582H211.34V78.0859H228.848V81.6719H206.84ZM244 57.4844C243.982 63.2148 246.426 68.998 251.559 71.4766L248.852 75.0625C245.424 73.3574 243.104 70.1934 241.785 66.3438C240.379 70.4746 237.918 73.8672 234.297 75.6602L231.52 72.0391C236.951 69.543 239.5 63.4258 239.5 57.4844V52.7031H244V57.4844ZM252.965 82.2344V50.2422H257.465V62.582H262.176V66.3789H257.465V82.2344H252.965ZM290.125 50.2422V82.3047H285.59V50.2422H290.125ZM264.285 63.8828C264.268 56.9043 267.836 52.4922 272.758 52.4922C277.574 52.4922 281.16 56.9043 281.16 63.8828C281.16 70.9141 277.574 75.3086 272.758 75.3086C267.836 75.3086 264.268 70.9141 264.285 63.8828ZM268.609 63.8828C268.592 68.6465 270.262 71.248 272.758 71.2305C275.184 71.248 276.818 68.6465 276.836 63.8828C276.818 59.1367 275.184 56.5352 272.758 56.5352C270.262 56.5352 268.592 59.1367 268.609 63.8828ZM321.449 50.2422V82.3047H317.02V65.1484H311.078V74.7109H295.645V52.7031H300.109V60.4727H306.684V52.7031H311.078V61.5273H317.02V50.2422H321.449ZM300.109 71.125H306.684V63.9883H300.109V71.125ZM351.648 64.5508V68.1016H342.367V74.9219H354.848V78.5781H325.562V74.9219H337.902V68.1016H329.008V52.4922H351.402V56.0781H333.508V64.5508H351.648ZM368.77 57.4844C368.787 63.4961 371.213 69.3496 376.539 71.6523L373.797 75.2383C370.246 73.5156 367.855 70.3164 366.52 66.3613C365.148 70.5625 362.688 74.0078 359.031 75.8008L356.219 72.1445C361.703 69.666 364.199 63.4961 364.234 57.4844V52.7031H368.77V57.4844ZM372.953 63.918V60.2969H379.246V50.2422H383.676V82.3047H379.246V63.918H372.953ZM405.719 52.5625V54.5664C405.719 56.7812 405.719 59.9805 404.98 63.9531L400.586 63.5312C401.166 60.4727 401.307 58.1348 401.342 56.2188H389.266V52.5625H405.719ZM387.367 66.2734C389.16 66.2734 391.182 66.2734 393.309 66.2207V59.9453H397.773V66.0801C400.973 65.9395 404.225 65.6934 407.23 65.2539L407.477 68.4883C400.814 69.7188 393.326 69.8418 387.754 69.8594L387.367 66.2734ZM392.078 81.6719V72.0391H396.578V78.0859H414.543V81.6719H392.078ZM408.953 74.1836V50.2422H413.559V59.9805H417.426V63.7422H413.559V74.1836H408.953Z" fill="white"/>
<path d="M178.188 101H173.207V86.8594H178.246C182.504 86.8594 185.111 89.5059 185.102 93.9102C185.111 98.334 182.504 101 178.188 101ZM176.137 98.4805H178.07C180.766 98.4805 182.172 97.084 182.172 93.9102C182.172 90.7656 180.766 89.3789 178.09 89.3789H176.137V98.4805ZM188.793 101H185.629L190.531 86.8594H194.301L199.184 101H196.039L194.975 97.7383H189.857L188.793 101ZM190.6 95.4531H194.232L192.465 90.043H192.367L190.6 95.4531ZM200.785 101V86.8594H210.277V89.2812H203.715V92.7188H209.789V95.1406H203.715V98.5781H210.297V101H200.785ZM218.207 86.8594H221.117V96.7227C221.117 99.4668 219.174 101.195 216.332 101.195C213.773 101.195 211.771 99.8477 211.781 97.0547H214.711C214.73 98.1777 215.414 98.832 216.469 98.832C217.592 98.832 218.207 98.1094 218.207 96.7227V86.8594ZM223.5 101V86.8594H232.992V89.2812H226.43V92.7188H232.504V95.1406H226.43V98.5781H233.012V101H223.5ZM248.227 93.9297C248.227 98.5488 245.365 101.195 241.625 101.195C237.855 101.195 235.004 98.5293 235.004 93.9297C235.004 89.3105 237.855 86.6641 241.625 86.6641C245.365 86.6641 248.227 89.3105 248.227 93.9297ZM237.992 93.9297C237.992 96.9473 239.428 98.5879 241.625 98.5977C243.803 98.5879 245.248 96.9473 245.238 93.9297C245.248 90.9023 243.803 89.2715 241.625 89.2617C239.428 89.2715 237.992 90.9023 237.992 93.9297ZM262.133 86.8594V101H259.594L253.383 92.0156H253.266V101H250.336V86.8594H252.914L259.086 95.8438H259.223V86.8594H262.133ZM278.578 91.7812C278.344 90.2188 277.143 89.2715 275.492 89.2617C273.295 89.2715 271.84 90.9512 271.84 93.9297C271.84 96.9766 273.314 98.5879 275.473 98.5977C277.084 98.5879 278.295 97.709 278.578 96.1758L281.547 96.1953C281.225 98.8125 279.027 101.195 275.434 101.195C271.654 101.195 268.852 98.5293 268.852 93.9297C268.852 89.3105 271.703 86.6641 275.434 86.6641C278.695 86.6641 281.156 88.5293 281.547 91.7812H278.578ZM282.738 86.8594H286.039L289.301 92.9531H289.438L292.68 86.8594H295.98L290.824 95.9609V101H287.895V95.9609L282.738 86.8594ZM297.504 101V86.8594H303.129C306.244 86.8594 307.826 88.3633 307.816 90.4922C307.826 92.1523 306.732 93.1973 305.277 93.5195V93.6562C306.869 93.7344 308.373 95.0039 308.383 97.0938C308.373 99.3398 306.693 101 303.5 101H297.504ZM300.434 98.5781H302.914C304.613 98.5879 305.346 97.8848 305.336 96.8203C305.346 95.6289 304.438 94.7891 302.992 94.7891H300.434V98.5781ZM300.434 92.7773H302.699C303.93 92.7871 304.857 92.0938 304.848 90.9609C304.857 89.9355 304.096 89.2422 302.758 89.2422H300.434V92.7773ZM310.238 101V86.8594H319.73V89.2812H313.168V92.7188H319.242V95.1406H313.168V98.5781H319.75V101H310.238ZM322.016 101V86.8594H327.562C330.775 86.8594 332.621 88.666 332.621 91.4688C332.621 93.4023 331.732 94.8086 330.121 95.502L333.129 101H329.887L327.182 95.9805H324.945V101H322.016ZM324.945 93.5977H327.016C328.754 93.5977 329.604 92.8848 329.594 91.4688C329.604 90.043 328.754 89.2715 327.016 89.2617H324.945V93.5977ZM339.262 101V86.8594H342.191V98.5781H348.285V101H339.262ZM353.109 86.8594V101H350.18V86.8594H353.109ZM355.492 101V86.8594H361.117C364.232 86.8594 365.814 88.3633 365.805 90.4922C365.814 92.1523 364.721 93.1973 363.266 93.5195V93.6562C364.857 93.7344 366.361 95.0039 366.371 97.0938C366.361 99.3398 364.682 101 361.488 101H355.492ZM358.422 98.5781H360.902C362.602 98.5879 363.334 97.8848 363.324 96.8203C363.334 95.6289 362.426 94.7891 360.98 94.7891H358.422V98.5781ZM358.422 92.7773H360.688C361.918 92.7871 362.846 92.0938 362.836 90.9609C362.846 89.9355 362.084 89.2422 360.746 89.2422H358.422V92.7773ZM368.227 101V86.8594H373.773C376.986 86.8594 378.832 88.666 378.832 91.4688C378.832 93.4023 377.943 94.8086 376.332 95.502L379.34 101H376.098L373.393 95.9805H371.156V101H368.227ZM371.156 93.5977H373.227C374.965 93.5977 375.814 92.8848 375.805 91.4688C375.814 90.043 374.965 89.2715 373.227 89.2617H371.156V93.5977ZM383.227 101H380.062L384.965 86.8594H388.734L393.617 101H390.473L389.408 97.7383H384.291L383.227 101ZM385.033 95.4531H388.666L386.898 90.043H386.801L385.033 95.4531ZM395.219 101V86.8594H400.766C403.979 86.8594 405.824 88.666 405.824 91.4688C405.824 93.4023 404.936 94.8086 403.324 95.502L406.332 101H403.09L400.385 95.9805H398.148V101H395.219ZM398.148 93.5977H400.219C401.957 93.5977 402.807 92.8848 402.797 91.4688C402.807 90.043 401.957 89.2715 400.219 89.2617H398.148V93.5977ZM406.41 86.8594H409.711L412.973 92.9531H413.109L416.352 86.8594H419.652L414.496 95.9609V101H411.566V95.9609L406.41 86.8594Z" fill="#898989"/>
</svg>
