<svg width="502" height="165" viewBox="0 0 502 165" fill="none" xmlns="http://www.w3.org/2000/svg">
<path d="M78.8073 55.1031L74.7418 127.117C67.1321 109.897 57.2291 93.3033 11.2582 90.7986L7.19275 12.8403C30.96 9.08324 72.3026 18.7852 78.8073 55.1031Z" fill="#37AD74"/>
<path d="M74.7418 127.117C70.4679 104.679 55.2276 69.6968 27.2073 67.9435L33.7745 0.00374055C47.6388 -0.309345 72.5527 19.0394 78.8073 55.1069L74.7418 127.117Z" fill="#1B7349"/>
<path d="M75.2802 137.086L86.308 65.9874C100.183 31.8122 142.531 30.7175 165.012 39.327L144.913 114.74C99.4096 107.646 86.2875 121.822 75.2802 137.086Z" fill="#37AD74"/>
<path d="M134.038 89.0743C106.253 84.9718 84.1035 116.028 75.2806 137.089L86.1938 65.804C99.7737 31.8206 128.157 18.0659 141.661 21.2507L134.038 89.0743Z" fill="#1B7349"/>
<path d="M197.664 50.2422V82.2344H193.41V66.168H190.316V80.6875H186.203V50.7695H190.316V62.582H193.41V50.2422H197.664ZM170.91 74.9922V53.9336H182.828V57.5547H175.41V71.2305C178.504 71.1777 181.246 71.002 184.34 70.457L184.656 74.1133C180.754 74.8516 177.344 74.9746 173.125 74.9922H170.91ZM228.074 50.2773V73.6211H223.609V62.1602H218.371V58.5391H223.609V50.2773H228.074ZM200.934 66.4141C206.225 64.7617 208.615 60.5957 208.633 56.5V56.0078H202.199V52.4219H219.566V56.0078H213.203V56.5352C213.186 60.2441 215.471 64.1992 220.551 65.8516L218.336 69.4023C214.803 68.2422 212.359 65.9219 210.971 63.0566C209.547 66.2383 206.998 68.8223 203.219 70.0703L200.934 66.4141ZM206.84 81.6719V71.582H211.34V78.0859H228.848V81.6719H206.84ZM244 57.4844C243.982 63.2148 246.426 68.998 251.559 71.4766L248.852 75.0625C245.424 73.3574 243.104 70.1934 241.785 66.3438C240.379 70.4746 237.918 73.8672 234.297 75.6602L231.52 72.0391C236.951 69.543 239.5 63.4258 239.5 57.4844V52.7031H244V57.4844ZM252.965 82.2344V50.2422H257.465V62.582H262.176V66.3789H257.465V82.2344H252.965ZM290.125 50.2422V82.3047H285.59V50.2422H290.125ZM264.285 63.8828C264.268 56.9043 267.836 52.4922 272.758 52.4922C277.574 52.4922 281.16 56.9043 281.16 63.8828C281.16 70.9141 277.574 75.3086 272.758 75.3086C267.836 75.3086 264.268 70.9141 264.285 63.8828ZM268.609 63.8828C268.592 68.6465 270.262 71.248 272.758 71.2305C275.184 71.248 276.818 68.6465 276.836 63.8828C276.818 59.1367 275.184 56.5352 272.758 56.5352C270.262 56.5352 268.592 59.1367 268.609 63.8828ZM321.449 50.2422V82.3047H317.02V65.1484H311.078V74.7109H295.645V52.7031H300.109V60.4727H306.684V52.7031H311.078V61.5273H317.02V50.2422H321.449ZM300.109 71.125H306.684V63.9883H300.109V71.125ZM351.648 64.5508V68.1016H342.367V74.9219H354.848V78.5781H325.562V74.9219H337.902V68.1016H329.008V52.4922H351.402V56.0781H333.508V64.5508H351.648ZM368.77 57.4844C368.787 63.4961 371.213 69.3496 376.539 71.6523L373.797 75.2383C370.246 73.5156 367.855 70.3164 366.52 66.3613C365.148 70.5625 362.688 74.0078 359.031 75.8008L356.219 72.1445C361.703 69.666 364.199 63.4961 364.234 57.4844V52.7031H368.77V57.4844ZM372.953 63.918V60.2969H379.246V50.2422H383.676V82.3047H379.246V63.918H372.953ZM405.719 52.5625V54.5664C405.719 56.7812 405.719 59.9805 404.98 63.9531L400.586 63.5312C401.166 60.4727 401.307 58.1348 401.342 56.2188H389.266V52.5625H405.719ZM387.367 66.2734C389.16 66.2734 391.182 66.2734 393.309 66.2207V59.9453H397.773V66.0801C400.973 65.9395 404.225 65.6934 407.23 65.2539L407.477 68.4883C400.814 69.7188 393.326 69.8418 387.754 69.8594L387.367 66.2734ZM392.078 81.6719V72.0391H396.578V78.0859H414.543V81.6719H392.078ZM408.953 74.1836V50.2422H413.559V59.9805H417.426V63.7422H413.559V74.1836H408.953Z" fill="white"/>
<path d="M197.664 50.2422H198.664V49.2422H197.664V50.2422ZM197.664 82.2344V83.2344H198.664V82.2344H197.664ZM193.41 82.2344H192.41V83.2344H193.41V82.2344ZM193.41 66.168H194.41V65.168H193.41V66.168ZM190.316 66.168V65.168H189.316V66.168H190.316ZM190.316 80.6875V81.6875H191.316V80.6875H190.316ZM186.203 80.6875H185.203V81.6875H186.203V80.6875ZM186.203 50.7695V49.7695H185.203V50.7695H186.203ZM190.316 50.7695H191.316V49.7695H190.316V50.7695ZM190.316 62.582H189.316V63.582H190.316V62.582ZM193.41 62.582V63.582H194.41V62.582H193.41ZM193.41 50.2422V49.2422H192.41V50.2422H193.41ZM170.91 74.9922H169.91V75.9922H170.91V74.9922ZM170.91 53.9336V52.9336H169.91V53.9336H170.91ZM182.828 53.9336H183.828V52.9336H182.828V53.9336ZM182.828 57.5547V58.5547H183.828V57.5547H182.828ZM175.41 57.5547V56.5547H174.41V57.5547H175.41ZM175.41 71.2305H174.41V72.2477L175.427 72.2303L175.41 71.2305ZM184.34 70.457L185.336 70.3708L185.242 69.2827L184.166 69.4722L184.34 70.457ZM184.656 74.1133L184.842 75.0959L185.73 74.9278L185.653 74.0271L184.656 74.1133ZM173.125 74.9922V75.9922L173.129 75.9922L173.125 74.9922ZM196.664 50.2422V82.2344H198.664V50.2422H196.664ZM197.664 81.2344H193.41V83.2344H197.664V81.2344ZM194.41 82.2344V66.168H192.41V82.2344H194.41ZM193.41 65.168H190.316V67.168H193.41V65.168ZM189.316 66.168V80.6875H191.316V66.168H189.316ZM190.316 79.6875H186.203V81.6875H190.316V79.6875ZM187.203 80.6875V50.7695H185.203V80.6875H187.203ZM186.203 51.7695H190.316V49.7695H186.203V51.7695ZM189.316 50.7695V62.582H191.316V50.7695H189.316ZM190.316 63.582H193.41V61.582H190.316V63.582ZM194.41 62.582V50.2422H192.41V62.582H194.41ZM193.41 51.2422H197.664V49.2422H193.41V51.2422ZM171.91 74.9922V53.9336H169.91V74.9922H171.91ZM170.91 54.9336H182.828V52.9336H170.91V54.9336ZM181.828 53.9336V57.5547H183.828V53.9336H181.828ZM182.828 56.5547H175.41V58.5547H182.828V56.5547ZM174.41 57.5547V71.2305H176.41V57.5547H174.41ZM175.427 72.2303C178.552 72.1771 181.35 71.999 184.513 71.4419L184.166 69.4722C181.142 70.0049 178.456 70.1784 175.393 70.2306L175.427 72.2303ZM183.344 70.5432L183.66 74.1995L185.653 74.0271L185.336 70.3708L183.344 70.5432ZM184.47 73.1307C180.66 73.8516 177.323 73.9747 173.121 73.9922L173.129 75.9922C177.365 75.9745 180.848 75.8515 184.842 75.0959L184.47 73.1307ZM173.125 73.9922H170.91V75.9922H173.125V73.9922ZM228.074 50.2773H229.074V49.2773H228.074V50.2773ZM228.074 73.6211V74.6211H229.074V73.6211H228.074ZM223.609 73.6211H222.609V74.6211H223.609V73.6211ZM223.609 62.1602H224.609V61.1602H223.609V62.1602ZM218.371 62.1602H217.371V63.1602H218.371V62.1602ZM218.371 58.5391V57.5391H217.371V58.5391H218.371ZM223.609 58.5391V59.5391H224.609V58.5391H223.609ZM223.609 50.2773V49.2773H222.609V50.2773H223.609ZM200.934 66.4141L200.635 65.4595L199.399 65.8456L200.086 66.9441L200.934 66.4141ZM208.633 56.5L209.633 56.5043V56.5H208.633ZM208.633 56.0078H209.633V55.0078H208.633V56.0078ZM202.199 56.0078H201.199V57.0078H202.199V56.0078ZM202.199 52.4219V51.4219H201.199V52.4219H202.199ZM219.566 52.4219H220.566V51.4219H219.566V52.4219ZM219.566 56.0078V57.0078H220.566V56.0078H219.566ZM213.203 56.0078V55.0078H212.203V56.0078H213.203ZM213.203 56.5352L214.203 56.5399V56.5352H213.203ZM220.551 65.8516L221.399 66.3808L222.076 65.296L220.86 64.9006L220.551 65.8516ZM218.336 69.4023L218.024 70.3524L218.769 70.5972L219.184 69.9316L218.336 69.4023ZM210.971 63.0566L211.871 62.6205L210.935 60.6892L210.058 62.6482L210.971 63.0566ZM203.219 70.0703L202.371 70.6003L202.787 71.2661L203.532 71.0199L203.219 70.0703ZM206.84 81.6719H205.84V82.6719H206.84V81.6719ZM206.84 71.582V70.582H205.84V71.582H206.84ZM211.34 71.582H212.34V70.582H211.34V71.582ZM211.34 78.0859H210.34V79.0859H211.34V78.0859ZM228.848 78.0859H229.848V77.0859H228.848V78.0859ZM228.848 81.6719V82.6719H229.848V81.6719H228.848ZM227.074 50.2773V73.6211H229.074V50.2773H227.074ZM228.074 72.6211H223.609V74.6211H228.074V72.6211ZM224.609 73.6211V62.1602H222.609V73.6211H224.609ZM223.609 61.1602H218.371V63.1602H223.609V61.1602ZM219.371 62.1602V58.5391H217.371V62.1602H219.371ZM218.371 59.5391H223.609V57.5391H218.371V59.5391ZM224.609 58.5391V50.2773H222.609V58.5391H224.609ZM223.609 51.2773H228.074V49.2773H223.609V51.2773ZM201.232 67.3686C206.961 65.5793 209.613 61.0118 209.633 56.5043L207.633 56.4957C207.617 60.1796 205.488 63.9441 200.635 65.4595L201.232 67.3686ZM209.633 56.5V56.0078H207.633V56.5H209.633ZM208.633 55.0078H202.199V57.0078H208.633V55.0078ZM203.199 56.0078V52.4219H201.199V56.0078H203.199ZM202.199 53.4219H219.566V51.4219H202.199V53.4219ZM218.566 52.4219V56.0078H220.566V52.4219H218.566ZM219.566 55.0078H213.203V57.0078H219.566V55.0078ZM212.203 56.0078V56.5352H214.203V56.0078H212.203ZM212.203 56.5304C212.183 60.6776 214.751 65.0167 220.241 66.8025L220.86 64.9006C216.19 63.3817 214.188 59.8106 214.203 56.5399L212.203 56.5304ZM219.702 65.3223L217.487 68.8731L219.184 69.9316L221.399 66.3808L219.702 65.3223ZM218.648 68.4523C215.379 67.379 213.144 65.2487 211.871 62.6205L210.071 63.4928C211.574 66.595 214.226 69.1054 218.024 70.3524L218.648 68.4523ZM210.058 62.6482C208.739 65.5944 206.396 67.9678 202.905 69.1207L203.532 71.0199C207.6 69.6767 210.354 66.8822 211.883 63.4651L210.058 62.6482ZM204.067 69.5403L201.782 65.8841L200.086 66.9441L202.371 70.6003L204.067 69.5403ZM207.84 81.6719V71.582H205.84V81.6719H207.84ZM206.84 72.582H211.34V70.582H206.84V72.582ZM210.34 71.582V78.0859H212.34V71.582H210.34ZM211.34 79.0859H228.848V77.0859H211.34V79.0859ZM227.848 78.0859V81.6719H229.848V78.0859H227.848ZM228.848 80.6719H206.84V82.6719H228.848V80.6719ZM244 57.4844L245 57.4874V57.4844H244ZM251.559 71.4766L252.357 72.0791L253.091 71.1061L251.993 70.5761L251.559 71.4766ZM248.852 75.0625L248.406 75.9578L249.149 76.3276L249.65 75.665L248.852 75.0625ZM241.785 66.3438L242.731 66.0198L241.782 63.249L240.839 66.0215L241.785 66.3438ZM234.297 75.6602L233.503 76.2687L234.004 76.9212L234.741 76.5563L234.297 75.6602ZM231.52 72.0391L231.102 71.1304L229.964 71.6536L230.726 72.6477L231.52 72.0391ZM239.5 52.7031V51.7031H238.5V52.7031H239.5ZM244 52.7031H245V51.7031H244V52.7031ZM252.965 82.2344H251.965V83.2344H252.965V82.2344ZM252.965 50.2422V49.2422H251.965V50.2422H252.965ZM257.465 50.2422H258.465V49.2422H257.465V50.2422ZM257.465 62.582H256.465V63.582H257.465V62.582ZM262.176 62.582H263.176V61.582H262.176V62.582ZM262.176 66.3789V67.3789H263.176V66.3789H262.176ZM257.465 66.3789V65.3789H256.465V66.3789H257.465ZM257.465 82.2344V83.2344H258.465V82.2344H257.465ZM243 57.4813C242.982 63.4437 245.525 69.6736 251.124 72.3771L251.993 70.5761C247.326 68.3225 244.983 62.986 245 57.4874L243 57.4813ZM250.76 70.8741L248.053 74.46L249.65 75.665L252.357 72.0791L250.76 70.8741ZM249.297 74.1672C246.166 72.6099 243.99 69.6943 242.731 66.0198L240.839 66.6677C242.217 70.6924 244.681 74.1049 248.406 75.9578L249.297 74.1672ZM240.839 66.0215C239.49 69.9828 237.171 73.1214 233.853 74.764L234.741 76.5563C238.665 74.613 241.268 70.9665 242.732 66.666L240.839 66.0215ZM235.09 75.0516L232.313 71.4305L230.726 72.6477L233.503 76.2687L235.09 75.0516ZM231.937 72.9477C237.855 70.2282 240.5 63.648 240.5 57.4844H238.5C238.5 63.2036 236.048 68.8577 231.102 71.1304L231.937 72.9477ZM240.5 57.4844V52.7031H238.5V57.4844H240.5ZM239.5 53.7031H244V51.7031H239.5V53.7031ZM243 52.7031V57.4844H245V52.7031H243ZM253.965 82.2344V50.2422H251.965V82.2344H253.965ZM252.965 51.2422H257.465V49.2422H252.965V51.2422ZM256.465 50.2422V62.582H258.465V50.2422H256.465ZM257.465 63.582H262.176V61.582H257.465V63.582ZM261.176 62.582V66.3789H263.176V62.582H261.176ZM262.176 65.3789H257.465V67.3789H262.176V65.3789ZM256.465 66.3789V82.2344H258.465V66.3789H256.465ZM257.465 81.2344H252.965V83.2344H257.465V81.2344ZM290.125 50.2422H291.125V49.2422H290.125V50.2422ZM290.125 82.3047V83.3047H291.125V82.3047H290.125ZM285.59 82.3047H284.59V83.3047H285.59V82.3047ZM285.59 50.2422V49.2422H284.59V50.2422H285.59ZM264.285 63.8828L265.285 63.8853L265.285 63.8803L264.285 63.8828ZM268.609 63.8828L269.609 63.8865L269.609 63.8791L268.609 63.8828ZM272.758 71.2305L272.765 70.2305L272.758 70.2304L272.751 70.2305L272.758 71.2305ZM276.836 63.8828L277.836 63.8865L277.836 63.8791L276.836 63.8828ZM289.125 50.2422V82.3047H291.125V50.2422H289.125ZM290.125 81.3047H285.59V83.3047H290.125V81.3047ZM286.59 82.3047V50.2422H284.59V82.3047H286.59ZM285.59 51.2422H290.125V49.2422H285.59V51.2422ZM265.285 63.8803C265.277 60.5526 266.124 57.9358 267.465 56.1766C268.791 54.4362 270.625 53.4922 272.758 53.4922V51.4922C269.968 51.4922 267.558 52.7543 265.874 54.9645C264.204 57.156 263.276 60.2345 263.285 63.8853L265.285 63.8803ZM272.758 53.4922C274.831 53.4922 276.645 54.4305 277.968 56.1749C279.305 57.9365 280.16 60.5558 280.16 63.8828H282.16C282.16 60.2313 281.223 57.1553 279.562 54.9662C277.888 52.76 275.501 51.4922 272.758 51.4922V53.4922ZM280.16 63.8828C280.16 67.2377 279.304 69.8654 277.968 71.6285C276.646 73.3738 274.832 74.3086 272.758 74.3086V76.3086C275.5 76.3086 277.888 75.0461 279.562 72.8364C281.223 70.6443 282.16 67.5592 282.16 63.8828H280.16ZM272.758 74.3086C270.624 74.3086 268.79 73.3681 267.465 71.6268C266.125 69.8661 265.277 67.2409 265.285 63.8853L263.285 63.8803C263.276 67.556 264.203 70.6436 265.873 72.8381C267.558 75.0518 269.97 76.3086 272.758 76.3086V74.3086ZM267.609 63.8791C267.6 66.3569 268.026 68.3981 268.878 69.8544C269.754 71.3525 271.1 72.2422 272.765 72.2304L272.751 70.2305C271.919 70.2363 271.183 69.834 270.604 68.8448C270.001 67.8138 269.601 66.1724 269.609 63.8865L267.609 63.8791ZM272.751 72.2304C274.394 72.2424 275.711 71.3384 276.567 69.8476C277.401 68.3959 277.827 66.3605 277.836 63.8865L275.836 63.8791C275.827 66.1688 275.427 67.816 274.833 68.8517C274.261 69.8481 273.547 70.2362 272.765 70.2305L272.751 72.2304ZM277.836 63.8791C277.827 61.4131 277.4 59.3825 276.567 57.9312C275.712 56.4418 274.398 55.5352 272.758 55.5352V57.5352C273.544 57.5352 274.26 57.9293 274.833 58.9272C275.428 59.9632 275.827 61.6064 275.836 63.8865L277.836 63.8791ZM272.758 55.5352C271.096 55.5352 269.753 56.4278 268.878 57.9244C268.026 59.3802 267.6 61.4167 267.609 63.8865L269.609 63.8791C269.601 61.6029 270.001 59.9655 270.604 58.934C271.184 57.9433 271.923 57.5352 272.758 57.5352V55.5352ZM321.449 50.2422H322.449V49.2422H321.449V50.2422ZM321.449 82.3047V83.3047H322.449V82.3047H321.449ZM317.02 82.3047H316.02V83.3047H317.02V82.3047ZM317.02 65.1484H318.02V64.1484H317.02V65.1484ZM311.078 65.1484V64.1484H310.078V65.1484H311.078ZM311.078 74.7109V75.7109H312.078V74.7109H311.078ZM295.645 74.7109H294.645V75.7109H295.645V74.7109ZM295.645 52.7031V51.7031H294.645V52.7031H295.645ZM300.109 52.7031H301.109V51.7031H300.109V52.7031ZM300.109 60.4727H299.109V61.4727H300.109V60.4727ZM306.684 60.4727V61.4727H307.684V60.4727H306.684ZM306.684 52.7031V51.7031H305.684V52.7031H306.684ZM311.078 52.7031H312.078V51.7031H311.078V52.7031ZM311.078 61.5273H310.078V62.5273H311.078V61.5273ZM317.02 61.5273V62.5273H318.02V61.5273H317.02ZM317.02 50.2422V49.2422H316.02V50.2422H317.02ZM300.109 71.125H299.109V72.125H300.109V71.125ZM306.684 71.125V72.125H307.684V71.125H306.684ZM306.684 63.9883H307.684V62.9883H306.684V63.9883ZM300.109 63.9883V62.9883H299.109V63.9883H300.109ZM320.449 50.2422V82.3047H322.449V50.2422H320.449ZM321.449 81.3047H317.02V83.3047H321.449V81.3047ZM318.02 82.3047V65.1484H316.02V82.3047H318.02ZM317.02 64.1484H311.078V66.1484H317.02V64.1484ZM310.078 65.1484V74.7109H312.078V65.1484H310.078ZM311.078 73.7109H295.645V75.7109H311.078V73.7109ZM296.645 74.7109V52.7031H294.645V74.7109H296.645ZM295.645 53.7031H300.109V51.7031H295.645V53.7031ZM299.109 52.7031V60.4727H301.109V52.7031H299.109ZM300.109 61.4727H306.684V59.4727H300.109V61.4727ZM307.684 60.4727V52.7031H305.684V60.4727H307.684ZM306.684 53.7031H311.078V51.7031H306.684V53.7031ZM310.078 52.7031V61.5273H312.078V52.7031H310.078ZM311.078 62.5273H317.02V60.5273H311.078V62.5273ZM318.02 61.5273V50.2422H316.02V61.5273H318.02ZM317.02 51.2422H321.449V49.2422H317.02V51.2422ZM300.109 72.125H306.684V70.125H300.109V72.125ZM307.684 71.125V63.9883H305.684V71.125H307.684ZM306.684 62.9883H300.109V64.9883H306.684V62.9883ZM299.109 63.9883V71.125H301.109V63.9883H299.109ZM351.648 64.5508H352.648V63.5508H351.648V64.5508ZM351.648 68.1016V69.1016H352.648V68.1016H351.648ZM342.367 68.1016V67.1016H341.367V68.1016H342.367ZM342.367 74.9219H341.367V75.9219H342.367V74.9219ZM354.848 74.9219H355.848V73.9219H354.848V74.9219ZM354.848 78.5781V79.5781H355.848V78.5781H354.848ZM325.562 78.5781H324.562V79.5781H325.562V78.5781ZM325.562 74.9219V73.9219H324.562V74.9219H325.562ZM337.902 74.9219V75.9219H338.902V74.9219H337.902ZM337.902 68.1016H338.902V67.1016H337.902V68.1016ZM329.008 68.1016H328.008V69.1016H329.008V68.1016ZM329.008 52.4922V51.4922H328.008V52.4922H329.008ZM351.402 52.4922H352.402V51.4922H351.402V52.4922ZM351.402 56.0781V57.0781H352.402V56.0781H351.402ZM333.508 56.0781V55.0781H332.508V56.0781H333.508ZM333.508 64.5508H332.508V65.5508H333.508V64.5508ZM350.648 64.5508V68.1016H352.648V64.5508H350.648ZM351.648 67.1016H342.367V69.1016H351.648V67.1016ZM341.367 68.1016V74.9219H343.367V68.1016H341.367ZM342.367 75.9219H354.848V73.9219H342.367V75.9219ZM353.848 74.9219V78.5781H355.848V74.9219H353.848ZM354.848 77.5781H325.562V79.5781H354.848V77.5781ZM326.562 78.5781V74.9219H324.562V78.5781H326.562ZM325.562 75.9219H337.902V73.9219H325.562V75.9219ZM338.902 74.9219V68.1016H336.902V74.9219H338.902ZM337.902 67.1016H329.008V69.1016H337.902V67.1016ZM330.008 68.1016V52.4922H328.008V68.1016H330.008ZM329.008 53.4922H351.402V51.4922H329.008V53.4922ZM350.402 52.4922V56.0781H352.402V52.4922H350.402ZM351.402 55.0781H333.508V57.0781H351.402V55.0781ZM332.508 56.0781V64.5508H334.508V56.0781H332.508ZM333.508 65.5508H351.648V63.5508H333.508V65.5508ZM368.77 57.4844H367.77L367.77 57.4873L368.77 57.4844ZM376.539 71.6523L377.333 72.2598L378.111 71.2426L376.936 70.7345L376.539 71.6523ZM373.797 75.2383L373.36 76.138L374.095 76.4945L374.591 75.8457L373.797 75.2383ZM366.52 66.3613L367.467 66.0413L366.503 63.1882L365.569 66.0511L366.52 66.3613ZM359.031 75.8008L358.239 76.4105L358.737 77.0587L359.472 76.6986L359.031 75.8008ZM356.219 72.1445L355.807 71.2333L354.656 71.7533L355.426 72.7542L356.219 72.1445ZM364.234 57.4844L365.234 57.4902V57.4844H364.234ZM364.234 52.7031V51.7031H363.234V52.7031H364.234ZM368.77 52.7031H369.77V51.7031H368.77V52.7031ZM372.953 63.918H371.953V64.918H372.953V63.918ZM372.953 60.2969V59.2969H371.953V60.2969H372.953ZM379.246 60.2969V61.2969H380.246V60.2969H379.246ZM379.246 50.2422V49.2422H378.246V50.2422H379.246ZM383.676 50.2422H384.676V49.2422H383.676V50.2422ZM383.676 82.3047V83.3047H384.676V82.3047H383.676ZM379.246 82.3047H378.246V83.3047H379.246V82.3047ZM379.246 63.918H380.246V62.918H379.246V63.918ZM367.77 57.4873C367.788 63.7038 370.302 70.0451 376.142 72.5702L376.936 70.7345C372.124 68.6541 369.787 63.2884 369.77 57.4815L367.77 57.4873ZM375.745 71.0449L373.003 74.6308L374.591 75.8457L377.333 72.2598L375.745 71.0449ZM374.233 74.3386C370.982 72.7611 368.74 69.811 367.467 66.0413L365.572 66.6813C366.971 70.8218 369.51 74.2702 373.36 76.138L374.233 74.3386ZM365.569 66.0511C364.254 70.0802 361.935 73.2631 358.591 74.9029L359.472 76.6986C363.44 74.7526 366.043 71.0448 367.47 66.6716L365.569 66.0511ZM359.824 75.1911L357.011 71.5348L355.426 72.7542L358.239 76.4105L359.824 75.1911ZM356.631 73.0558C362.614 70.3515 365.198 63.7063 365.234 57.4902L363.234 57.4785C363.2 63.2859 360.792 68.9805 355.807 71.2333L356.631 73.0558ZM365.234 57.4844V52.7031H363.234V57.4844H365.234ZM364.234 53.7031H368.77V51.7031H364.234V53.7031ZM367.77 52.7031V57.4844H369.77V52.7031H367.77ZM373.953 63.918V60.2969H371.953V63.918H373.953ZM372.953 61.2969H379.246V59.2969H372.953V61.2969ZM380.246 60.2969V50.2422H378.246V60.2969H380.246ZM379.246 51.2422H383.676V49.2422H379.246V51.2422ZM382.676 50.2422V82.3047H384.676V50.2422H382.676ZM383.676 81.3047H379.246V83.3047H383.676V81.3047ZM380.246 82.3047V63.918H378.246V82.3047H380.246ZM379.246 62.918H372.953V64.918H379.246V62.918ZM405.719 52.5625H406.719V51.5625H405.719V52.5625ZM404.98 63.9531L404.885 64.9485L405.796 65.036L405.964 64.1358L404.98 63.9531ZM400.586 63.5312L399.603 63.3449L399.399 64.4219L400.49 64.5267L400.586 63.5312ZM401.342 56.2188L402.342 56.2371L402.36 55.2188H401.342V56.2188ZM389.266 56.2188H388.266V57.2188H389.266V56.2188ZM389.266 52.5625V51.5625H388.266V52.5625H389.266ZM387.367 66.2734V65.2734H386.254L386.373 66.3807L387.367 66.2734ZM393.309 66.2207L393.333 67.2204L394.309 67.1962V66.2207H393.309ZM393.309 59.9453V58.9453H392.309V59.9453H393.309ZM397.773 59.9453H398.773V58.9453H397.773V59.9453ZM397.773 66.0801H396.773V67.125L397.817 67.0791L397.773 66.0801ZM407.23 65.2539L408.228 65.178L408.146 64.1094L407.086 64.2644L407.23 65.2539ZM407.477 68.4883L407.658 69.4716L408.542 69.3084L408.474 68.4124L407.477 68.4883ZM387.754 69.8594L386.76 69.9666L386.856 70.8622L387.757 70.8594L387.754 69.8594ZM392.078 81.6719H391.078V82.6719H392.078V81.6719ZM392.078 72.0391V71.0391H391.078V72.0391H392.078ZM396.578 72.0391H397.578V71.0391H396.578V72.0391ZM396.578 78.0859H395.578V79.0859H396.578V78.0859ZM414.543 78.0859H415.543V77.0859H414.543V78.0859ZM414.543 81.6719V82.6719H415.543V81.6719H414.543ZM408.953 74.1836H407.953V75.1836H408.953V74.1836ZM408.953 50.2422V49.2422H407.953V50.2422H408.953ZM413.559 50.2422H414.559V49.2422H413.559V50.2422ZM413.559 59.9805H412.559V60.9805H413.559V59.9805ZM417.426 59.9805H418.426V58.9805H417.426V59.9805ZM417.426 63.7422V64.7422H418.426V63.7422H417.426ZM413.559 63.7422V62.7422H412.559V63.7422H413.559ZM413.559 74.1836V75.1836H414.559V74.1836H413.559ZM404.719 52.5625V54.5664H406.719V52.5625H404.719ZM404.719 54.5664C404.719 56.7726 404.718 59.8939 403.997 63.7704L405.964 64.1358C406.72 60.067 406.719 56.7899 406.719 54.5664H404.719ZM405.076 62.9577L400.681 62.5358L400.49 64.5267L404.885 64.9485L405.076 62.9577ZM401.568 63.7176C402.161 60.5909 402.306 58.1949 402.342 56.2371L400.342 56.2004C400.308 58.0746 400.171 60.3544 399.603 63.3449L401.568 63.7176ZM401.342 55.2188H389.266V57.2188H401.342V55.2188ZM390.266 56.2188V52.5625H388.266V56.2188H390.266ZM389.266 53.5625H405.719V51.5625H389.266V53.5625ZM387.367 67.2734C389.159 67.2734 391.192 67.2735 393.333 67.2204L393.284 65.221C391.171 65.2734 389.161 65.2734 387.367 65.2734V67.2734ZM394.309 66.2207V59.9453H392.309V66.2207H394.309ZM393.309 60.9453H397.773V58.9453H393.309V60.9453ZM396.773 59.9453V66.0801H398.773V59.9453H396.773ZM397.817 67.0791C401.035 66.9377 404.324 66.6895 407.375 66.2434L407.086 64.2644C404.126 64.6972 400.91 64.9412 397.73 65.081L397.817 67.0791ZM406.233 65.3298L406.479 68.5641L408.474 68.4124L408.228 65.178L406.233 65.3298ZM407.295 67.5049C400.731 68.7172 393.325 68.8418 387.751 68.8594L387.757 70.8594C393.328 70.8418 400.898 70.7203 407.658 69.4716L407.295 67.5049ZM388.748 69.7522L388.361 66.1662L386.373 66.3807L386.76 69.9666L388.748 69.7522ZM393.078 81.6719V72.0391H391.078V81.6719H393.078ZM392.078 73.0391H396.578V71.0391H392.078V73.0391ZM395.578 72.0391V78.0859H397.578V72.0391H395.578ZM396.578 79.0859H414.543V77.0859H396.578V79.0859ZM413.543 78.0859V81.6719H415.543V78.0859H413.543ZM414.543 80.6719H392.078V82.6719H414.543V80.6719ZM409.953 74.1836V50.2422H407.953V74.1836H409.953ZM408.953 51.2422H413.559V49.2422H408.953V51.2422ZM412.559 50.2422V59.9805H414.559V50.2422H412.559ZM413.559 60.9805H417.426V58.9805H413.559V60.9805ZM416.426 59.9805V63.7422H418.426V59.9805H416.426ZM417.426 62.7422H413.559V64.7422H417.426V62.7422ZM412.559 63.7422V74.1836H414.559V63.7422H412.559ZM413.559 73.1836H408.953V75.1836H413.559V73.1836Z" fill="black"/>
<path d="M178.188 101H173.207V86.8594H178.246C182.504 86.8594 185.111 89.5059 185.102 93.9102C185.111 98.334 182.504 101 178.188 101ZM176.137 98.4805H178.07C180.766 98.4805 182.172 97.084 182.172 93.9102C182.172 90.7656 180.766 89.3789 178.09 89.3789H176.137V98.4805ZM188.793 101H185.629L190.531 86.8594H194.301L199.184 101H196.039L194.975 97.7383H189.857L188.793 101ZM190.6 95.4531H194.232L192.465 90.043H192.367L190.6 95.4531ZM200.785 101V86.8594H210.277V89.2812H203.715V92.7188H209.789V95.1406H203.715V98.5781H210.297V101H200.785ZM218.207 86.8594H221.117V96.7227C221.117 99.4668 219.174 101.195 216.332 101.195C213.773 101.195 211.771 99.8477 211.781 97.0547H214.711C214.73 98.1777 215.414 98.832 216.469 98.832C217.592 98.832 218.207 98.1094 218.207 96.7227V86.8594ZM223.5 101V86.8594H232.992V89.2812H226.43V92.7188H232.504V95.1406H226.43V98.5781H233.012V101H223.5ZM248.227 93.9297C248.227 98.5488 245.365 101.195 241.625 101.195C237.855 101.195 235.004 98.5293 235.004 93.9297C235.004 89.3105 237.855 86.6641 241.625 86.6641C245.365 86.6641 248.227 89.3105 248.227 93.9297ZM237.992 93.9297C237.992 96.9473 239.428 98.5879 241.625 98.5977C243.803 98.5879 245.248 96.9473 245.238 93.9297C245.248 90.9023 243.803 89.2715 241.625 89.2617C239.428 89.2715 237.992 90.9023 237.992 93.9297ZM262.133 86.8594V101H259.594L253.383 92.0156H253.266V101H250.336V86.8594H252.914L259.086 95.8438H259.223V86.8594H262.133ZM278.578 91.7812C278.344 90.2188 277.143 89.2715 275.492 89.2617C273.295 89.2715 271.84 90.9512 271.84 93.9297C271.84 96.9766 273.314 98.5879 275.473 98.5977C277.084 98.5879 278.295 97.709 278.578 96.1758L281.547 96.1953C281.225 98.8125 279.027 101.195 275.434 101.195C271.654 101.195 268.852 98.5293 268.852 93.9297C268.852 89.3105 271.703 86.6641 275.434 86.6641C278.695 86.6641 281.156 88.5293 281.547 91.7812H278.578ZM282.738 86.8594H286.039L289.301 92.9531H289.438L292.68 86.8594H295.98L290.824 95.9609V101H287.895V95.9609L282.738 86.8594ZM297.504 101V86.8594H303.129C306.244 86.8594 307.826 88.3633 307.816 90.4922C307.826 92.1523 306.732 93.1973 305.277 93.5195V93.6562C306.869 93.7344 308.373 95.0039 308.383 97.0938C308.373 99.3398 306.693 101 303.5 101H297.504ZM300.434 98.5781H302.914C304.613 98.5879 305.346 97.8848 305.336 96.8203C305.346 95.6289 304.438 94.7891 302.992 94.7891H300.434V98.5781ZM300.434 92.7773H302.699C303.93 92.7871 304.857 92.0938 304.848 90.9609C304.857 89.9355 304.096 89.2422 302.758 89.2422H300.434V92.7773ZM310.238 101V86.8594H319.73V89.2812H313.168V92.7188H319.242V95.1406H313.168V98.5781H319.75V101H310.238ZM322.016 101V86.8594H327.562C330.775 86.8594 332.621 88.666 332.621 91.4688C332.621 93.4023 331.732 94.8086 330.121 95.502L333.129 101H329.887L327.182 95.9805H324.945V101H322.016ZM324.945 93.5977H327.016C328.754 93.5977 329.604 92.8848 329.594 91.4688C329.604 90.043 328.754 89.2715 327.016 89.2617H324.945V93.5977ZM339.262 101V86.8594H342.191V98.5781H348.285V101H339.262ZM353.109 86.8594V101H350.18V86.8594H353.109ZM355.492 101V86.8594H361.117C364.232 86.8594 365.814 88.3633 365.805 90.4922C365.814 92.1523 364.721 93.1973 363.266 93.5195V93.6562C364.857 93.7344 366.361 95.0039 366.371 97.0938C366.361 99.3398 364.682 101 361.488 101H355.492ZM358.422 98.5781H360.902C362.602 98.5879 363.334 97.8848 363.324 96.8203C363.334 95.6289 362.426 94.7891 360.98 94.7891H358.422V98.5781ZM358.422 92.7773H360.688C361.918 92.7871 362.846 92.0938 362.836 90.9609C362.846 89.9355 362.084 89.2422 360.746 89.2422H358.422V92.7773ZM368.227 101V86.8594H373.773C376.986 86.8594 378.832 88.666 378.832 91.4688C378.832 93.4023 377.943 94.8086 376.332 95.502L379.34 101H376.098L373.393 95.9805H371.156V101H368.227ZM371.156 93.5977H373.227C374.965 93.5977 375.814 92.8848 375.805 91.4688C375.814 90.043 374.965 89.2715 373.227 89.2617H371.156V93.5977ZM383.227 101H380.062L384.965 86.8594H388.734L393.617 101H390.473L389.408 97.7383H384.291L383.227 101ZM385.033 95.4531H388.666L386.898 90.043H386.801L385.033 95.4531ZM395.219 101V86.8594H400.766C403.979 86.8594 405.824 88.666 405.824 91.4688C405.824 93.4023 404.936 94.8086 403.324 95.502L406.332 101H403.09L400.385 95.9805H398.148V101H395.219ZM398.148 93.5977H400.219C401.957 93.5977 402.807 92.8848 402.797 91.4688C402.807 90.043 401.957 89.2715 400.219 89.2617H398.148V93.5977ZM406.41 86.8594H409.711L412.973 92.9531H413.109L416.352 86.8594H419.652L414.496 95.9609V101H411.566V95.9609L406.41 86.8594Z" fill="#898989"/>
</svg>
