<svg width="472" height="136" viewBox="0 0 472 136" fill="none" xmlns="http://www.w3.org/2000/svg">
<path d="M65.0619 45.4183L61.7055 104.775C55.4231 90.5816 47.2473 76.9045 9.2946 74.8401L5.93823 10.5835C25.5601 7.4868 59.6917 15.4835 65.0619 45.4183Z" fill="#37AD74"/>
<path d="M61.7056 104.775C58.1771 86.2807 45.595 57.4471 22.4619 56.002L27.8837 0.00308312C39.3298 -0.254976 59.8983 15.6931 65.0619 45.4215L61.7056 104.775Z" fill="#1B7349"/>
<path d="M62.1487 113.007L71.2678 54.3956C82.7279 26.2205 117.679 25.3075 136.23 32.399L119.624 94.5697C82.0705 88.7331 71.2371 100.422 62.1487 113.007Z" fill="#37AD74"/>
<path d="M110.648 73.4132C87.7202 70.0385 69.4346 95.6429 62.1485 113.006L71.1719 54.2437C82.3867 26.2283 105.813 14.8834 116.955 17.5052L110.648 73.4132Z" fill="#1B7349"/>
<path d="M167.664 36.2422V68.2344H163.41V52.168H160.316V66.6875H156.203V36.7695H160.316V48.582H163.41V36.2422H167.664ZM140.91 60.9922V39.9336H152.828V43.5547H145.41V57.2305C148.504 57.1777 151.246 57.002 154.34 56.457L154.656 60.1133C150.754 60.8516 147.344 60.9746 143.125 60.9922H140.91ZM198.074 36.2773V59.6211H193.609V48.1602H188.371V44.5391H193.609V36.2773H198.074ZM170.934 52.4141C176.225 50.7617 178.615 46.5957 178.633 42.5V42.0078H172.199V38.4219H189.566V42.0078H183.203V42.5352C183.186 46.2441 185.471 50.1992 190.551 51.8516L188.336 55.4023C184.803 54.2422 182.359 51.9219 180.971 49.0566C179.547 52.2383 176.998 54.8223 173.219 56.0703L170.934 52.4141ZM176.84 67.6719V57.582H181.34V64.0859H198.848V67.6719H176.84ZM214 43.4844C213.982 49.2148 216.426 54.998 221.559 57.4766L218.852 61.0625C215.424 59.3574 213.104 56.1934 211.785 52.3438C210.379 56.4746 207.918 59.8672 204.297 61.6602L201.52 58.0391C206.951 55.543 209.5 49.4258 209.5 43.4844V38.7031H214V43.4844ZM222.965 68.2344V36.2422H227.465V48.582H232.176V52.3789H227.465V68.2344H222.965ZM260.125 36.2422V68.3047H255.59V36.2422H260.125ZM234.285 49.8828C234.268 42.9043 237.836 38.4922 242.758 38.4922C247.574 38.4922 251.16 42.9043 251.16 49.8828C251.16 56.9141 247.574 61.3086 242.758 61.3086C237.836 61.3086 234.268 56.9141 234.285 49.8828ZM238.609 49.8828C238.592 54.6465 240.262 57.248 242.758 57.2305C245.184 57.248 246.818 54.6465 246.836 49.8828C246.818 45.1367 245.184 42.5352 242.758 42.5352C240.262 42.5352 238.592 45.1367 238.609 49.8828ZM291.449 36.2422V68.3047H287.02V51.1484H281.078V60.7109H265.645V38.7031H270.109V46.4727H276.684V38.7031H281.078V47.5273H287.02V36.2422H291.449ZM270.109 57.125H276.684V49.9883H270.109V57.125ZM321.648 50.5508V54.1016H312.367V60.9219H324.848V64.5781H295.562V60.9219H307.902V54.1016H299.008V38.4922H321.402V42.0781H303.508V50.5508H321.648ZM338.77 43.4844C338.787 49.4961 341.213 55.3496 346.539 57.6523L343.797 61.2383C340.246 59.5156 337.855 56.3164 336.52 52.3613C335.148 56.5625 332.688 60.0078 329.031 61.8008L326.219 58.1445C331.703 55.666 334.199 49.4961 334.234 43.4844V38.7031H338.77V43.4844ZM342.953 49.918V46.2969H349.246V36.2422H353.676V68.3047H349.246V49.918H342.953ZM375.719 38.5625V40.5664C375.719 42.7812 375.719 45.9805 374.98 49.9531L370.586 49.5312C371.166 46.4727 371.307 44.1348 371.342 42.2188H359.266V38.5625H375.719ZM357.367 52.2734C359.16 52.2734 361.182 52.2734 363.309 52.2207V45.9453H367.773V52.0801C370.973 51.9395 374.225 51.6934 377.23 51.2539L377.477 54.4883C370.814 55.7188 363.326 55.8418 357.754 55.8594L357.367 52.2734ZM362.078 67.6719V58.0391H366.578V64.0859H384.543V67.6719H362.078ZM378.953 60.1836V36.2422H383.559V45.9805H387.426V49.7422H383.559V60.1836H378.953Z" fill="white"/>
<path d="M148.188 87H143.207V72.8594H148.246C152.504 72.8594 155.111 75.5059 155.102 79.9102C155.111 84.334 152.504 87 148.188 87ZM146.137 84.4805H148.07C150.766 84.4805 152.172 83.084 152.172 79.9102C152.172 76.7656 150.766 75.3789 148.09 75.3789H146.137V84.4805ZM158.793 87H155.629L160.531 72.8594H164.301L169.184 87H166.039L164.975 83.7383H159.857L158.793 87ZM160.6 81.4531H164.232L162.465 76.043H162.367L160.6 81.4531ZM170.785 87V72.8594H180.277V75.2812H173.715V78.7188H179.789V81.1406H173.715V84.5781H180.297V87H170.785ZM188.207 72.8594H191.117V82.7227C191.117 85.4668 189.174 87.1953 186.332 87.1953C183.773 87.1953 181.771 85.8477 181.781 83.0547H184.711C184.73 84.1777 185.414 84.832 186.469 84.832C187.592 84.832 188.207 84.1094 188.207 82.7227V72.8594ZM193.5 87V72.8594H202.992V75.2812H196.43V78.7188H202.504V81.1406H196.43V84.5781H203.012V87H193.5ZM218.227 79.9297C218.227 84.5488 215.365 87.1953 211.625 87.1953C207.855 87.1953 205.004 84.5293 205.004 79.9297C205.004 75.3105 207.855 72.6641 211.625 72.6641C215.365 72.6641 218.227 75.3105 218.227 79.9297ZM207.992 79.9297C207.992 82.9473 209.428 84.5879 211.625 84.5977C213.803 84.5879 215.248 82.9473 215.238 79.9297C215.248 76.9023 213.803 75.2715 211.625 75.2617C209.428 75.2715 207.992 76.9023 207.992 79.9297ZM232.133 72.8594V87H229.594L223.383 78.0156H223.266V87H220.336V72.8594H222.914L229.086 81.8438H229.223V72.8594H232.133ZM248.578 77.7812C248.344 76.2188 247.143 75.2715 245.492 75.2617C243.295 75.2715 241.84 76.9512 241.84 79.9297C241.84 82.9766 243.314 84.5879 245.473 84.5977C247.084 84.5879 248.295 83.709 248.578 82.1758L251.547 82.1953C251.225 84.8125 249.027 87.1953 245.434 87.1953C241.654 87.1953 238.852 84.5293 238.852 79.9297C238.852 75.3105 241.703 72.6641 245.434 72.6641C248.695 72.6641 251.156 74.5293 251.547 77.7812H248.578ZM252.738 72.8594H256.039L259.301 78.9531H259.438L262.68 72.8594H265.98L260.824 81.9609V87H257.895V81.9609L252.738 72.8594ZM267.504 87V72.8594H273.129C276.244 72.8594 277.826 74.3633 277.816 76.4922C277.826 78.1523 276.732 79.1973 275.277 79.5195V79.6562C276.869 79.7344 278.373 81.0039 278.383 83.0938C278.373 85.3398 276.693 87 273.5 87H267.504ZM270.434 84.5781H272.914C274.613 84.5879 275.346 83.8848 275.336 82.8203C275.346 81.6289 274.438 80.7891 272.992 80.7891H270.434V84.5781ZM270.434 78.7773H272.699C273.93 78.7871 274.857 78.0938 274.848 76.9609C274.857 75.9355 274.096 75.2422 272.758 75.2422H270.434V78.7773ZM280.238 87V72.8594H289.73V75.2812H283.168V78.7188H289.242V81.1406H283.168V84.5781H289.75V87H280.238ZM292.016 87V72.8594H297.562C300.775 72.8594 302.621 74.666 302.621 77.4688C302.621 79.4023 301.732 80.8086 300.121 81.502L303.129 87H299.887L297.182 81.9805H294.945V87H292.016ZM294.945 79.5977H297.016C298.754 79.5977 299.604 78.8848 299.594 77.4688C299.604 76.043 298.754 75.2715 297.016 75.2617H294.945V79.5977ZM309.262 87V72.8594H312.191V84.5781H318.285V87H309.262ZM323.109 72.8594V87H320.18V72.8594H323.109ZM325.492 87V72.8594H331.117C334.232 72.8594 335.814 74.3633 335.805 76.4922C335.814 78.1523 334.721 79.1973 333.266 79.5195V79.6562C334.857 79.7344 336.361 81.0039 336.371 83.0938C336.361 85.3398 334.682 87 331.488 87H325.492ZM328.422 84.5781H330.902C332.602 84.5879 333.334 83.8848 333.324 82.8203C333.334 81.6289 332.426 80.7891 330.98 80.7891H328.422V84.5781ZM328.422 78.7773H330.688C331.918 78.7871 332.846 78.0938 332.836 76.9609C332.846 75.9355 332.084 75.2422 330.746 75.2422H328.422V78.7773ZM338.227 87V72.8594H343.773C346.986 72.8594 348.832 74.666 348.832 77.4688C348.832 79.4023 347.943 80.8086 346.332 81.502L349.34 87H346.098L343.393 81.9805H341.156V87H338.227ZM341.156 79.5977H343.227C344.965 79.5977 345.814 78.8848 345.805 77.4688C345.814 76.043 344.965 75.2715 343.227 75.2617H341.156V79.5977ZM353.227 87H350.062L354.965 72.8594H358.734L363.617 87H360.473L359.408 83.7383H354.291L353.227 87ZM355.033 81.4531H358.666L356.898 76.043H356.801L355.033 81.4531ZM365.219 87V72.8594H370.766C373.979 72.8594 375.824 74.666 375.824 77.4688C375.824 79.4023 374.936 80.8086 373.324 81.502L376.332 87H373.09L370.385 81.9805H368.148V87H365.219ZM368.148 79.5977H370.219C371.957 79.5977 372.807 78.8848 372.797 77.4688C372.807 76.043 371.957 75.2715 370.219 75.2617H368.148V79.5977ZM376.41 72.8594H379.711L382.973 78.9531H383.109L386.352 72.8594H389.652L384.496 81.9609V87H381.566V81.9609L376.41 72.8594Z" fill="#BDBDBD"/>
</svg>
